<svg width="208" height="208" viewBox="0 0 208 208" fill="none" xmlns="http://www.w3.org/2000/svg">
<g id="paperPlane" filter="url(#filter0_ddi_1_11)">
<mask id="path-1-inside-1_1_11" fill="white">
<path d="M177.639 1.37443L15.2241 76.3344C-3.51429 85.0804 2.73183 112.564 22.7202 112.564L77 134L91.4353 181.278C91.4353 201.266 118.92 207.516 127.666 188.774L202.627 26.3624C208.873 11.3665 192.631 -4.87549 177.639 1.37443Z"/>
</mask>
<path d="M177.639 1.37443L15.2241 76.3344C-3.51429 85.0804 2.73183 112.564 22.7202 112.564L77 134L91.4353 181.278C91.4353 201.266 118.92 207.516 127.666 188.774L202.627 26.3624C208.873 11.3665 192.631 -4.87549 177.639 1.37443Z" stroke="#0081AF" stroke-width="20" shape-rendering="crispEdges" mask="url(#path-1-inside-1_1_11)"/>
</g>
<defs>
<filter id="filter0_ddi_1_11" x="0" y="0" width="208" height="208" filterUnits="userSpaceOnUse" color-interpolation-filters="sRGB">
<feFlood flood-opacity="0" result="BackgroundImageFix"/>
<feColorMatrix in="SourceAlpha" type="matrix" values="0 0 0 0 0 0 0 0 0 0 0 0 0 0 0 0 0 0 127 0" result="hardAlpha"/>
<feOffset dy="4"/>
<feGaussianBlur stdDeviation="2"/>
<feComposite in2="hardAlpha" operator="out"/>
<feColorMatrix type="matrix" values="0 0 0 0 0 0 0 0 0 0 0 0 0 0 0 0 0 0 0.25 0"/>
<feBlend mode="normal" in2="BackgroundImageFix" result="effect1_dropShadow_1_11"/>
<feColorMatrix in="SourceAlpha" type="matrix" values="0 0 0 0 0 0 0 0 0 0 0 0 0 0 0 0 0 0 127 0" result="hardAlpha"/>
<feOffset dy="4"/>
<feGaussianBlur stdDeviation="2"/>
<feComposite in2="hardAlpha" operator="out"/>
<feColorMatrix type="matrix" values="0 0 0 0 0 0 0 0 0 0 0 0 0 0 0 0 0 0 0.25 0"/>
<feBlend mode="normal" in2="effect1_dropShadow_1_11" result="effect2_dropShadow_1_11"/>
<feBlend mode="normal" in="SourceGraphic" in2="effect2_dropShadow_1_11" result="shape"/>
<feColorMatrix in="SourceAlpha" type="matrix" values="0 0 0 0 0 0 0 0 0 0 0 0 0 0 0 0 0 0 127 0" result="hardAlpha"/>
<feOffset dy="4"/>
<feGaussianBlur stdDeviation="2"/>
<feComposite in2="hardAlpha" operator="arithmetic" k2="-1" k3="1"/>
<feColorMatrix type="matrix" values="0 0 0 0 0 0 0 0 0 0 0 0 0 0 0 0 0 0 0.25 0"/>
<feBlend mode="normal" in2="shape" result="effect3_innerShadow_1_11"/>
</filter>
</defs>
</svg>
