<svg width="208" height="208" viewBox="0 0 208 208" fill="none" xmlns="http://www.w3.org/2000/svg">
<g id="rocket" filter="url(#filter0_dii_1_13)">
<mask id="path-1-inside-1_1_13" fill="white">
<path d="M201.316 7.46083C201.065 6.2919 200.481 5.22033 199.635 4.37492C198.79 3.52952 197.718 2.94627 196.549 2.69527C183.967 0 174.125 0 164.317 0C123.994 0 99.8078 21.5622 81.76 49.9993H41.046C37.5689 50.0022 34.1611 50.9715 31.2031 52.7987C28.2452 54.6259 25.8535 57.2393 24.2954 60.3468L4.9855 98.94C4.27239 100.37 3.93656 101.958 4.00988 103.554C4.0832 105.15 4.56324 106.7 5.40444 108.059C6.24564 109.417 7.42009 110.538 8.81633 111.315C10.2126 112.092 11.7843 112.499 13.3823 112.498H53.9283L45.1486 121.276C42.8044 123.62 41.4874 126.799 41.4874 130.113C41.4874 133.428 42.8044 136.607 45.1486 138.951L65.0368 158.838C66.1979 159.999 67.5764 160.92 69.0935 161.548C70.6107 162.176 72.2368 162.5 73.879 162.5C75.5212 162.5 77.1473 162.176 78.6645 161.548C80.1817 160.92 81.5601 159.999 82.7212 158.838L91.5009 150.06V190.622C91.5004 192.219 91.9081 193.79 92.6851 195.185C93.4622 196.581 94.5829 197.754 95.941 198.595C97.2992 199.436 98.8496 199.916 100.445 199.99C102.041 200.064 103.629 199.729 105.059 199.017L143.624 179.724C146.738 178.169 149.356 175.777 151.185 172.817C153.014 169.857 153.982 166.446 153.979 162.966V122.182C182.342 104.096 203.992 79.8387 203.992 39.726C204.031 29.8824 204.031 20.0388 201.316 7.46083V7.46083ZM154.018 65.6241C150.927 65.6241 147.905 64.7077 145.335 62.9908C142.764 61.274 140.761 58.8337 139.578 55.9786C138.395 53.1236 138.086 49.982 138.689 46.9511C139.292 43.9201 140.78 41.1361 142.966 38.9509C145.152 36.7657 147.937 35.2776 150.969 34.6747C154 34.0719 157.143 34.3813 159.999 35.5639C162.855 36.7465 165.296 38.7492 167.013 41.3186C168.73 43.8881 169.647 46.909 169.647 49.9993C169.647 54.1432 168 58.1175 165.069 61.0477C162.138 63.9779 158.163 65.6241 154.018 65.6241V65.6241Z"/>
</mask>
<path d="M201.316 7.46083C201.065 6.2919 200.481 5.22033 199.635 4.37492C198.79 3.52952 197.718 2.94627 196.549 2.69527C183.967 0 174.125 0 164.317 0C123.994 0 99.8078 21.5622 81.76 49.9993H41.046C37.5689 50.0022 34.1611 50.9715 31.2031 52.7987C28.2452 54.6259 25.8535 57.2393 24.2954 60.3468L4.9855 98.94C4.27239 100.37 3.93656 101.958 4.00988 103.554C4.0832 105.15 4.56324 106.7 5.40444 108.059C6.24564 109.417 7.42009 110.538 8.81633 111.315C10.2126 112.092 11.7843 112.499 13.3823 112.498H53.9283L45.1486 121.276C42.8044 123.62 41.4874 126.799 41.4874 130.113C41.4874 133.428 42.8044 136.607 45.1486 138.951L65.0368 158.838C66.1979 159.999 67.5764 160.92 69.0935 161.548C70.6107 162.176 72.2368 162.5 73.879 162.5C75.5212 162.5 77.1473 162.176 78.6645 161.548C80.1817 160.92 81.5601 159.999 82.7212 158.838L91.5009 150.06V190.622C91.5004 192.219 91.9081 193.79 92.6851 195.185C93.4622 196.581 94.5829 197.754 95.941 198.595C97.2992 199.436 98.8496 199.916 100.445 199.99C102.041 200.064 103.629 199.729 105.059 199.017L143.624 179.724C146.738 178.169 149.356 175.777 151.185 172.817C153.014 169.857 153.982 166.446 153.979 162.966V122.182C182.342 104.096 203.992 79.8387 203.992 39.726C204.031 29.8824 204.031 20.0388 201.316 7.46083V7.46083ZM154.018 65.6241C150.927 65.6241 147.905 64.7077 145.335 62.9908C142.764 61.274 140.761 58.8337 139.578 55.9786C138.395 53.1236 138.086 49.982 138.689 46.9511C139.292 43.9201 140.78 41.1361 142.966 38.9509C145.152 36.7657 147.937 35.2776 150.969 34.6747C154 34.0719 157.143 34.3813 159.999 35.5639C162.855 36.7465 165.296 38.7492 167.013 41.3186C168.73 43.8881 169.647 46.909 169.647 49.9993C169.647 54.1432 168 58.1175 165.069 61.0477C162.138 63.9779 158.163 65.6241 154.018 65.6241V65.6241Z" stroke="#A61C3C" stroke-width="20" shape-rendering="crispEdges" mask="url(#path-1-inside-1_1_13)"/>
</g>
<defs>
<filter id="filter0_dii_1_13" x="0" y="0" width="208" height="208" filterUnits="userSpaceOnUse" color-interpolation-filters="sRGB">
<feFlood flood-opacity="0" result="BackgroundImageFix"/>
<feColorMatrix in="SourceAlpha" type="matrix" values="0 0 0 0 0 0 0 0 0 0 0 0 0 0 0 0 0 0 127 0" result="hardAlpha"/>
<feOffset dy="4"/>
<feGaussianBlur stdDeviation="2"/>
<feComposite in2="hardAlpha" operator="out"/>
<feColorMatrix type="matrix" values="0 0 0 0 0 0 0 0 0 0 0 0 0 0 0 0 0 0 0.25 0"/>
<feBlend mode="normal" in2="BackgroundImageFix" result="effect1_dropShadow_1_13"/>
<feBlend mode="normal" in="SourceGraphic" in2="effect1_dropShadow_1_13" result="shape"/>
<feColorMatrix in="SourceAlpha" type="matrix" values="0 0 0 0 0 0 0 0 0 0 0 0 0 0 0 0 0 0 127 0" result="hardAlpha"/>
<feOffset dy="4"/>
<feGaussianBlur stdDeviation="2"/>
<feComposite in2="hardAlpha" operator="arithmetic" k2="-1" k3="1"/>
<feColorMatrix type="matrix" values="0 0 0 0 0 0 0 0 0 0 0 0 0 0 0 0 0 0 0.25 0"/>
<feBlend mode="normal" in2="shape" result="effect2_innerShadow_1_13"/>
<feColorMatrix in="SourceAlpha" type="matrix" values="0 0 0 0 0 0 0 0 0 0 0 0 0 0 0 0 0 0 127 0" result="hardAlpha"/>
<feOffset dy="4"/>
<feGaussianBlur stdDeviation="2"/>
<feComposite in2="hardAlpha" operator="arithmetic" k2="-1" k3="1"/>
<feColorMatrix type="matrix" values="0 0 0 0 0 0 0 0 0 0 0 0 0 0 0 0 0 0 0.25 0"/>
<feBlend mode="normal" in2="effect2_innerShadow_1_13" result="effect3_innerShadow_1_13"/>
</filter>
</defs>
</svg>
