<svg width="209" height="209" viewBox="0 0 209 209" fill="none" xmlns="http://www.w3.org/2000/svg">
<g id="scissors" filter="url(#filter0_ddii_1_6)">
<mask id="path-1-inside-1_1_6" fill="white">
<path d="M128.287 100.993L202.582 26.6935C204.676 24.5998 204.676 21.2069 202.582 19.1176C187.939 4.47479 164.194 4.47479 149.551 19.1176L97.9836 70.6891L86.8853 59.5909C88.8094 54.7159 89.8674 49.4078 89.8674 43.8498C89.8674 20.1801 70.6798 0.992645 47.0101 0.992645C23.3403 0.992645 4.15268 20.1801 4.15268 43.8498C4.15268 67.5194 23.3403 86.7069 47.0101 86.7069C49.0369 86.7069 51.0235 86.5641 52.9744 86.2918L67.6753 100.993L52.9744 115.694C51.0235 115.421 49.0324 115.278 47.0101 115.278C23.3403 115.278 4.15268 134.466 4.15268 158.135C4.15268 181.805 23.3403 200.993 47.0101 200.993C70.6798 200.993 89.8674 181.805 89.8674 158.135C89.8674 152.577 88.8094 147.269 86.8853 142.394L97.9836 131.296L149.551 182.868C164.194 197.51 187.939 197.51 202.582 182.868C204.676 180.778 204.676 177.385 202.582 175.292L128.287 100.993ZM47.0101 58.1355C39.135 58.1355 32.7243 51.7248 32.7243 43.8498C32.7243 35.9748 39.135 29.5641 47.0101 29.5641C54.8851 29.5641 61.2959 35.9748 61.2959 43.8498C61.2959 51.7248 54.8851 58.1355 47.0101 58.1355ZM47.0101 172.421C39.135 172.421 32.7243 166.01 32.7243 158.135C32.7243 150.26 39.135 143.85 47.0101 143.85C54.8851 143.85 61.2959 150.26 61.2959 158.135C61.2959 166.01 54.8851 172.421 47.0101 172.421Z"/>
</mask>
<path d="M128.287 100.993L202.582 26.6935C204.676 24.5998 204.676 21.2069 202.582 19.1176C187.939 4.47479 164.194 4.47479 149.551 19.1176L97.9836 70.6891L86.8853 59.5909C88.8094 54.7159 89.8674 49.4078 89.8674 43.8498C89.8674 20.1801 70.6798 0.992645 47.0101 0.992645C23.3403 0.992645 4.15268 20.1801 4.15268 43.8498C4.15268 67.5194 23.3403 86.7069 47.0101 86.7069C49.0369 86.7069 51.0235 86.5641 52.9744 86.2918L67.6753 100.993L52.9744 115.694C51.0235 115.421 49.0324 115.278 47.0101 115.278C23.3403 115.278 4.15268 134.466 4.15268 158.135C4.15268 181.805 23.3403 200.993 47.0101 200.993C70.6798 200.993 89.8674 181.805 89.8674 158.135C89.8674 152.577 88.8094 147.269 86.8853 142.394L97.9836 131.296L149.551 182.868C164.194 197.51 187.939 197.51 202.582 182.868C204.676 180.778 204.676 177.385 202.582 175.292L128.287 100.993ZM47.0101 58.1355C39.135 58.1355 32.7243 51.7248 32.7243 43.8498C32.7243 35.9748 39.135 29.5641 47.0101 29.5641C54.8851 29.5641 61.2959 35.9748 61.2959 43.8498C61.2959 51.7248 54.8851 58.1355 47.0101 58.1355ZM47.0101 172.421C39.135 172.421 32.7243 166.01 32.7243 158.135C32.7243 150.26 39.135 143.85 47.0101 143.85C54.8851 143.85 61.2959 150.26 61.2959 158.135C61.2959 166.01 54.8851 172.421 47.0101 172.421Z" stroke="#15A223" stroke-width="20" shape-rendering="crispEdges" mask="url(#path-1-inside-1_1_6)"/>
<path d="M128.287 100.993L202.582 26.6935C204.676 24.5998 204.676 21.2069 202.582 19.1176C187.939 4.47479 164.194 4.47479 149.551 19.1176L97.9836 70.6891L86.8853 59.5909C88.8094 54.7159 89.8674 49.4078 89.8674 43.8498C89.8674 20.1801 70.6798 0.992645 47.0101 0.992645C23.3403 0.992645 4.15268 20.1801 4.15268 43.8498C4.15268 67.5194 23.3403 86.7069 47.0101 86.7069C49.0369 86.7069 51.0235 86.5641 52.9744 86.2918L67.6753 100.993L52.9744 115.694C51.0235 115.421 49.0324 115.278 47.0101 115.278C23.3403 115.278 4.15268 134.466 4.15268 158.135C4.15268 181.805 23.3403 200.993 47.0101 200.993C70.6798 200.993 89.8674 181.805 89.8674 158.135C89.8674 152.577 88.8094 147.269 86.8853 142.394L97.9836 131.296L149.551 182.868C164.194 197.51 187.939 197.51 202.582 182.868C204.676 180.778 204.676 177.385 202.582 175.292L128.287 100.993ZM47.0101 58.1355C39.135 58.1355 32.7243 51.7248 32.7243 43.8498C32.7243 35.9748 39.135 29.5641 47.0101 29.5641C54.8851 29.5641 61.2959 35.9748 61.2959 43.8498C61.2959 51.7248 54.8851 58.1355 47.0101 58.1355ZM47.0101 172.421C39.135 172.421 32.7243 166.01 32.7243 158.135C32.7243 150.26 39.135 143.85 47.0101 143.85C54.8851 143.85 61.2959 150.26 61.2959 158.135C61.2959 166.01 54.8851 172.421 47.0101 172.421Z" stroke="#15A223" stroke-width="20" shape-rendering="crispEdges" mask="url(#path-1-inside-1_1_6)"/>
</g>
<defs>
<filter id="filter0_ddii_1_6" x="0.152679" y="0.992645" width="208" height="208" filterUnits="userSpaceOnUse" color-interpolation-filters="sRGB">
<feFlood flood-opacity="0" result="BackgroundImageFix"/>
<feColorMatrix in="SourceAlpha" type="matrix" values="0 0 0 0 0 0 0 0 0 0 0 0 0 0 0 0 0 0 127 0" result="hardAlpha"/>
<feOffset dy="4"/>
<feGaussianBlur stdDeviation="2"/>
<feComposite in2="hardAlpha" operator="out"/>
<feColorMatrix type="matrix" values="0 0 0 0 0 0 0 0 0 0 0 0 0 0 0 0 0 0 0.25 0"/>
<feBlend mode="normal" in2="BackgroundImageFix" result="effect1_dropShadow_1_6"/>
<feColorMatrix in="SourceAlpha" type="matrix" values="0 0 0 0 0 0 0 0 0 0 0 0 0 0 0 0 0 0 127 0" result="hardAlpha"/>
<feOffset dy="4"/>
<feGaussianBlur stdDeviation="2"/>
<feComposite in2="hardAlpha" operator="out"/>
<feColorMatrix type="matrix" values="0 0 0 0 0 0 0 0 0 0 0 0 0 0 0 0 0 0 0.25 0"/>
<feBlend mode="normal" in2="effect1_dropShadow_1_6" result="effect2_dropShadow_1_6"/>
<feBlend mode="normal" in="SourceGraphic" in2="effect2_dropShadow_1_6" result="shape"/>
<feColorMatrix in="SourceAlpha" type="matrix" values="0 0 0 0 0 0 0 0 0 0 0 0 0 0 0 0 0 0 127 0" result="hardAlpha"/>
<feOffset dy="4"/>
<feGaussianBlur stdDeviation="2"/>
<feComposite in2="hardAlpha" operator="arithmetic" k2="-1" k3="1"/>
<feColorMatrix type="matrix" values="0 0 0 0 0 0 0 0 0 0 0 0 0 0 0 0 0 0 0.25 0"/>
<feBlend mode="normal" in2="shape" result="effect3_innerShadow_1_6"/>
<feColorMatrix in="SourceAlpha" type="matrix" values="0 0 0 0 0 0 0 0 0 0 0 0 0 0 0 0 0 0 127 0" result="hardAlpha"/>
<feOffset dy="4"/>
<feGaussianBlur stdDeviation="2"/>
<feComposite in2="hardAlpha" operator="arithmetic" k2="-1" k3="1"/>
<feColorMatrix type="matrix" values="0 0 0 0 0 0 0 0 0 0 0 0 0 0 0 0 0 0 0.25 0"/>
<feBlend mode="normal" in2="effect3_innerShadow_1_6" result="effect4_innerShadow_1_6"/>
</filter>
</defs>
</svg>
